<svg width="1244" height="790" viewBox="0 0 1244 790" fill="none" xmlns="http://www.w3.org/2000/svg">
<path d="M1189.81 0.47876H55.0244C25.1816 0.47876 0.989258 24.6711 0.989258 54.5139V735.31C0.989258 765.153 25.1816 789.345 55.0244 789.345H1189.81C1219.65 789.345 1243.84 765.153 1243.84 735.31V54.5139C1243.84 24.6711 1219.65 0.47876 1189.81 0.47876Z" fill="#F68E78"/>
<mask id="mask0" mask-type="alpha" maskUnits="userSpaceOnUse" x="0" y="0" width="1244" height="790">
<path d="M1189.81 0.47876H55.0244C25.1816 0.47876 0.989258 24.6711 0.989258 54.5139V735.31C0.989258 765.153 25.1816 789.345 55.0244 789.345H1189.81C1219.65 789.345 1243.84 765.153 1243.84 735.31V54.5139C1243.84 24.6711 1219.65 0.47876 1189.81 0.47876Z" fill="#F68E78"/>
</mask>
<g mask="url(#mask0)">
<path d="M1151.76 238.062C1097.67 225.364 1041.47 217.865 991.697 193.155C941.927 168.446 898.438 121.264 897.645 65.7114C896.41 -20.6413 989.925 -74.2314 1031.38 -149.995C1050.23 -184.455 1056.74 -224.603 1052.17 -263.535H188.635C186.658 -261.057 184.709 -258.557 182.785 -256.036C227.311 -230.953 269.859 -202.619 303.28 -164.355C349.295 -111.681 374.94 -35.351 349.287 29.7089C318.873 106.857 225.076 152.691 214.647 234.956C205.152 309.85 272.774 374.036 343.617 400.149C414.46 426.262 492.511 428.446 562.871 455.831C586.223 465.039 608.557 476.644 629.516 490.457C685.267 442.134 734.422 386.004 787.47 334.431C818.204 304.553 851.44 275.455 891.801 261.02C932.163 246.585 981.389 249.693 1012.7 278.959C1045.63 309.739 1050.77 359.353 1052.86 404.376C1059.6 549.985 1056.38 697.375 1088.78 839.493C1115.43 956.405 1170.28 1071.93 1258.71 1150.61H1503.19V420.777C1402.68 332.969 1281.78 268.578 1151.76 238.062Z" fill="#FF4486"/>
<path d="M764.945 614.053C875.765 741.414 965.161 885.93 1029.64 1041.96C1044.22 1077.27 1057.56 1113.57 1066.85 1150.62H1259.05C1170.61 1071.91 1115.76 956.331 1089.1 839.377C1056.7 697.2 1059.92 549.749 1053.18 404.081C1051.09 359.037 1045.95 309.402 1013.02 278.611C981.7 249.333 932.468 246.226 892.104 260.665C851.74 275.105 818.499 304.218 787.764 334.107C734.707 385.702 685.549 441.852 629.793 490.192C680.689 523.397 724.78 567.924 764.945 614.053Z" fill="#3B2163"/>
<path d="M70.9894 220.016C78.9465 300.403 96.3087 381.383 136.603 451.422C176.898 521.461 242.617 579.778 321.558 597.317C412.816 617.591 508.567 581.442 584.303 526.696C600.05 515.31 615.157 503.152 629.807 490.465C608.83 476.654 586.479 465.054 563.112 455.851C492.712 428.474 414.602 426.292 343.712 400.184C272.823 374.076 205.157 309.912 214.66 235.041C225.095 152.799 318.957 106.982 349.388 29.8619C375.05 -35.184 349.388 -111.489 303.347 -164.147C269.9 -202.395 227.327 -230.727 182.771 -255.802C84.4349 -127.061 54.6168 54.5914 70.9894 220.016Z" fill="#F2BEA5"/>
</g>
</svg>
