<svg width="1105" height="676" viewBox="0 0 1105 676" fill="none" xmlns="http://www.w3.org/2000/svg">
<path d="M561.864 149.995L549.855 114.377L537.846 149.995H561.864Z" fill="white"/>
<path d="M235.654 299.429C238.384 301.612 239.885 304.569 240.158 308.299H209.862C210.771 304.205 212.591 301.158 215.32 299.156C218.141 297.064 221.507 296.017 225.419 296.017C229.513 296.017 232.925 297.154 235.654 299.429Z" fill="white"/>
<path d="M531.805 330.953C527.347 330.953 523.526 329.361 520.342 326.177C517.249 322.993 515.702 318.99 515.702 314.168C515.702 309.255 517.249 305.206 520.342 302.022C523.435 298.838 527.257 297.245 531.805 297.245C536.354 297.245 540.176 298.838 543.269 302.022C546.362 305.206 547.909 309.255 547.909 314.168C547.909 318.99 546.317 322.993 543.132 326.177C540.039 329.361 536.263 330.953 531.805 330.953Z" fill="white"/>
<path d="M646.285 330.953C641.827 330.953 638.006 329.361 634.822 326.177C631.728 322.993 630.182 318.99 630.182 314.168C630.182 309.255 631.728 305.206 634.822 302.022C637.915 298.838 641.736 297.245 646.285 297.245C650.834 297.245 654.655 298.838 657.748 302.022C660.842 305.206 662.388 309.255 662.388 314.168C662.388 318.99 660.796 322.993 657.612 326.177C654.519 329.361 650.743 330.953 646.285 330.953Z" fill="white"/>
<path d="M725.461 330.953C729.919 330.953 733.785 329.316 737.061 326.04C740.336 322.765 741.974 318.762 741.974 314.031C741.974 309.3 740.29 305.343 736.924 302.158C733.558 298.883 729.737 297.245 725.461 297.245C720.912 297.245 717 298.883 713.724 302.158C710.54 305.434 708.948 309.391 708.948 314.031C708.948 318.671 710.54 322.674 713.724 326.04C717 329.316 720.912 330.953 725.461 330.953Z" fill="white"/>
<path d="M908.263 330.953C913.631 330.953 917.953 329.361 921.228 326.177C924.503 322.993 926.141 318.762 926.141 313.485V303.387H913.722C907.9 303.387 903.214 304.751 899.666 307.481C896.118 310.21 894.344 313.804 894.344 318.262C894.344 322.174 895.617 325.267 898.165 327.542C900.712 329.816 904.078 330.953 908.263 330.953Z" fill="white"/>
<path d="M82.7011 482.98C79.4258 486.255 75.5592 487.893 71.1012 487.893C66.5522 487.893 62.6401 486.255 59.3648 482.98C56.1805 479.614 54.5884 475.611 54.5884 470.971C54.5884 466.331 56.1805 462.373 59.3648 459.098C62.6401 455.823 66.5522 454.185 71.1012 454.185C75.3772 454.185 79.1984 455.823 82.5646 459.098C85.9309 462.282 87.614 466.24 87.614 470.971C87.614 475.702 85.9763 479.705 82.7011 482.98Z" fill="white"/>
<path d="M169.258 465.239C168.985 461.509 167.484 458.552 164.754 456.369C162.025 454.094 158.613 452.957 154.519 452.957C150.607 452.957 147.241 454.003 144.42 456.096C141.691 458.097 139.871 461.145 138.962 465.239H169.258Z" fill="white"/>
<path d="M342.712 482.98C339.437 486.255 335.57 487.893 331.112 487.893C326.564 487.893 322.651 486.255 319.376 482.98C316.192 479.614 314.6 475.611 314.6 470.971C314.6 466.331 316.192 462.373 319.376 459.098C322.651 455.823 326.564 454.185 331.112 454.185C335.389 454.185 339.21 455.823 342.576 459.098C345.942 462.282 347.625 466.24 347.625 470.971C347.625 475.702 345.988 479.705 342.712 482.98Z" fill="white"/>
<path d="M584.445 483.117C587.63 486.301 591.451 487.893 595.909 487.893C600.367 487.893 604.142 486.301 607.236 483.117C610.42 479.932 612.012 475.929 612.012 471.107C612.012 466.194 610.465 462.146 607.372 458.962C604.279 455.777 600.458 454.185 595.909 454.185C591.36 454.185 587.539 455.777 584.445 458.962C581.352 462.146 579.805 466.194 579.805 471.107C579.805 475.929 581.352 479.932 584.445 483.117Z" fill="white"/>
<path d="M798.189 487.893C802.738 487.893 806.605 486.301 809.789 483.117C812.973 479.841 814.566 475.838 814.566 471.107C814.566 466.376 812.973 462.373 809.789 459.098C806.605 455.823 802.738 454.185 798.189 454.185C793.731 454.185 789.865 455.823 786.589 459.098C783.314 462.373 781.676 466.376 781.676 471.107C781.676 475.838 783.36 479.841 786.726 483.117C790.092 486.301 793.913 487.893 798.189 487.893Z" fill="white"/>
<path d="M889.522 482.98C886.247 486.255 882.381 487.893 877.923 487.893C873.283 487.893 869.37 486.255 866.186 482.98C863.093 479.614 861.546 475.656 861.546 471.107C861.546 466.467 863.093 462.51 866.186 459.234C869.279 455.868 873.146 454.185 877.786 454.185C882.335 454.185 886.247 455.823 889.522 459.098C892.798 462.373 894.435 466.376 894.435 471.107C894.435 475.656 892.798 479.614 889.522 482.98Z" fill="white"/>
<path fill-rule="evenodd" clip-rule="evenodd" d="M1104.88 0.295959H0.880859V675.296H1104.88V0.295959ZM575.102 189.025L567.46 166.508H532.251L524.745 189.025H504.547L539.62 94.998H560.09L595.026 189.025H575.102ZM184.805 282.234V296.154H171.294V345.965H153.417V296.154H141.817V282.234H153.417V259.034H171.294V282.234H184.805ZM257.762 319.899C258.035 317.079 258.172 314.805 258.172 313.076C258.172 303.523 254.988 295.744 248.619 289.74C242.25 283.644 234.381 280.596 225.01 280.596C215.639 280.596 207.633 283.69 200.991 289.876C194.441 296.063 191.165 304.16 191.165 314.168C191.165 323.993 194.35 332.045 200.718 338.323C207.178 344.509 215.32 347.603 225.146 347.603C230.787 347.603 236.155 346.465 241.25 344.191C246.344 341.916 250.393 338.778 253.395 334.775L243.024 324.266C238.657 329.27 233.061 331.772 226.238 331.772C222.053 331.772 218.505 330.726 215.593 328.633C212.773 326.541 210.862 323.63 209.862 319.899H257.762ZM302.996 347.603C293.443 347.603 285.209 344.464 278.295 338.186C271.471 331.818 268.059 323.72 268.059 313.895C268.059 304.069 271.471 296.063 278.295 289.876C285.209 283.69 293.443 280.596 302.996 280.596C314.368 280.596 323.329 285.145 329.88 294.243L316.37 303.66C313.276 299.383 308.864 297.245 303.132 297.245C298.128 297.245 294.034 298.838 290.85 302.022C287.756 305.206 286.21 309.164 286.21 313.895C286.21 318.717 287.756 322.765 290.85 326.04C294.034 329.316 298.128 330.953 303.132 330.953C308.864 330.953 313.276 328.815 316.37 324.539L329.88 333.956C323.329 343.054 314.368 347.603 302.996 347.603ZM398.466 288.648C394.19 283.28 387.913 280.596 379.634 280.596C375.995 280.596 372.219 281.642 368.307 283.735C364.395 285.737 361.802 288.602 360.528 292.333V247.571H342.651V345.965H360.528V312.53C360.528 307.344 361.938 303.569 364.759 301.203C367.67 298.747 371.036 297.518 374.857 297.518C378.224 297.518 381.089 298.792 383.455 301.34C385.82 303.796 387.003 307.39 387.003 312.121V345.965H404.881V311.029C404.971 301.385 402.833 293.925 398.466 288.648ZM459.063 280.596C467.342 280.596 473.62 283.28 477.896 288.648C482.263 293.925 484.401 301.385 484.31 311.029V345.965H466.432V311.984C466.432 307.253 465.25 303.66 462.884 301.203C460.519 298.747 457.653 297.518 454.287 297.518C450.466 297.518 447.099 298.701 444.188 301.067C441.368 303.432 439.957 307.253 439.957 312.53V345.965H422.08V282.234H439.957V293.015C441.231 289.103 443.824 286.055 447.736 283.871C451.648 281.688 455.424 280.596 459.063 280.596ZM531.805 347.603C541.176 347.603 549.228 344.464 555.961 338.186C562.693 331.909 566.059 323.902 566.059 314.168C566.059 304.342 562.693 296.29 555.961 290.013C549.228 283.735 541.176 280.596 531.805 280.596C522.435 280.596 514.383 283.735 507.65 290.013C500.918 296.29 497.552 304.342 497.552 314.168C497.552 323.902 500.918 331.909 507.65 338.186C514.383 344.464 522.435 347.603 531.805 347.603ZM580.139 345.965V247.571H598.017V345.965H580.139ZM646.285 347.603C655.656 347.603 663.708 344.464 670.44 338.186C677.173 331.909 680.539 323.902 680.539 314.168C680.539 304.342 677.173 296.29 670.44 290.013C663.708 283.735 655.656 280.596 646.285 280.596C636.914 280.596 628.862 283.735 622.13 290.013C615.398 296.29 612.031 304.342 612.031 314.168C612.031 323.902 615.398 331.909 622.13 338.186C628.862 344.464 636.914 347.603 646.285 347.603ZM742.519 282.234H760.397V338.05C760.397 351.606 757.167 361.795 750.708 368.619C744.339 375.442 735.378 378.854 723.823 378.854C717 378.854 710.813 377.08 705.263 373.532C699.714 370.075 695.574 365.344 692.845 359.339L707.72 352.925C709.084 355.836 711.268 358.202 714.27 360.021C717.273 361.932 720.457 362.887 723.823 362.887C736.287 362.887 742.519 355.245 742.519 339.96V338.186C740.336 341.189 737.334 343.509 733.512 345.146C729.691 346.784 725.87 347.603 722.049 347.603C713.497 347.603 706.128 344.509 699.941 338.323C693.845 332.045 690.798 323.948 690.798 314.031C690.798 304.114 693.845 296.063 699.941 289.876C706.128 283.69 713.497 280.596 722.049 280.596C725.87 280.596 729.691 281.415 733.512 283.053C737.334 284.599 740.336 286.874 742.519 289.876V282.234ZM838.765 282.234H819.523L804.921 319.081L789.909 282.234H770.258L795.505 339.96L780.357 377.216H799.462L838.765 282.234ZM953.435 330.68H956.71V346.511H952.889C942.335 346.329 935.148 342.735 931.327 335.73C928.961 339.46 925.504 342.371 920.955 344.464C916.497 346.556 911.448 347.603 905.807 347.603C896.8 347.603 889.613 345.101 884.245 340.097C878.877 335.002 876.193 328.451 876.193 320.445C876.193 314.532 877.785 309.391 880.97 305.024C884.245 300.657 888.203 297.609 892.842 295.881C889.294 294.516 886.428 292.014 884.245 288.375C882.152 284.736 881.106 280.596 881.106 275.956C881.106 268.769 883.835 262.719 889.294 257.806C894.753 252.802 901.713 250.3 910.174 250.3C914.814 250.3 919.272 251.301 923.548 253.302C927.824 255.213 931.281 257.851 933.92 261.218L921.774 272.681C918.863 268.86 915.087 266.949 910.447 266.949C907.263 266.949 904.624 267.905 902.532 269.815C900.439 271.726 899.393 274.228 899.393 277.321C899.393 280.778 900.621 283.644 903.078 285.918C905.534 288.102 908.946 289.194 913.313 289.194H926.141V279.368H942.927V289.74H954.254V303.387H942.927V316.215C942.927 320.764 943.882 324.312 945.793 326.859C947.794 329.407 950.341 330.68 953.435 330.68ZM106.037 404.51H88.1599V446.952C86.0673 443.859 83.1105 441.539 79.2893 439.992C75.5592 438.355 71.6926 437.536 67.6895 437.536C59.1374 437.536 51.768 440.629 45.5814 446.816C39.4858 453.002 36.438 461.054 36.438 470.971C36.438 480.888 39.4858 488.985 45.5814 495.262C51.768 501.449 59.1374 504.542 67.6895 504.542C71.5106 504.542 75.3317 503.723 79.1529 502.086C83.065 500.448 86.0673 498.083 88.1599 494.989V502.905H106.037V404.51ZM187.272 470.016C187.272 471.744 187.135 474.019 186.862 476.839H138.962C139.962 480.569 141.873 483.481 144.693 485.573C147.605 487.666 151.153 488.712 155.338 488.712C162.161 488.712 167.757 486.21 172.124 481.206L182.495 491.714C179.493 495.717 175.444 498.856 170.35 501.131C165.255 503.405 159.887 504.542 154.246 504.542C144.42 504.542 136.278 501.449 129.818 495.262C123.45 488.985 120.265 480.933 120.265 471.107C120.265 461.1 123.541 453.002 130.091 446.816C136.733 440.629 144.739 437.536 154.11 437.536C163.481 437.536 171.35 440.584 177.719 446.679C184.087 452.684 187.272 460.463 187.272 470.016ZM223.634 504.542C230.731 504.542 236.963 502.723 242.331 499.084C247.698 495.444 250.382 490.486 250.382 484.208C250.382 474.747 244.651 468.469 233.187 465.376L222.679 462.646C218.494 461.554 216.402 459.735 216.402 457.187C216.402 455.55 217.084 454.231 218.449 453.23C219.904 452.138 221.678 451.592 223.771 451.592C225.954 451.592 227.774 452.184 229.23 453.366C230.776 454.549 231.55 456.187 231.55 458.279H248.608C248.608 454.64 247.835 451.456 246.288 448.726C244.833 445.906 242.831 443.722 240.284 442.176C237.827 440.629 235.189 439.492 232.368 438.764C229.548 437.945 226.591 437.536 223.498 437.536C216.311 437.536 210.351 439.446 205.62 443.268C200.89 447.089 198.524 451.547 198.524 456.642C198.524 466.831 204.711 473.564 217.084 476.839L225.545 478.886C230.185 480.069 232.505 481.843 232.505 484.208C232.505 486.028 231.641 487.529 229.912 488.712C228.183 489.895 226 490.486 223.361 490.486C220.45 490.486 218.13 489.713 216.402 488.166C214.764 486.619 213.945 484.845 213.945 482.844H197.159C197.25 489.576 199.889 494.898 205.075 498.811C210.351 502.632 216.538 504.542 223.634 504.542ZM273.291 427.983C270.198 427.983 267.514 426.937 265.239 424.844C263.056 422.752 261.964 420.204 261.964 417.202C261.964 414.2 263.056 411.698 265.239 409.696C267.514 407.604 270.198 406.557 273.291 406.557C276.475 406.557 279.159 407.604 281.343 409.696C283.526 411.698 284.618 414.2 284.618 417.202C284.618 420.204 283.526 422.752 281.343 424.844C279.159 426.937 276.475 427.983 273.291 427.983ZM264.421 502.905V439.173H282.298V502.905H264.421ZM366.049 439.173H348.171V446.816C345.988 443.813 342.985 441.539 339.164 439.992C335.343 438.355 331.522 437.536 327.701 437.536C319.149 437.536 311.779 440.629 305.593 446.816C299.497 453.002 296.449 461.054 296.449 470.971C296.449 480.888 299.497 488.985 305.593 495.262C311.779 501.449 319.149 504.542 327.701 504.542C331.522 504.542 335.343 503.723 339.164 502.086C342.985 500.448 345.988 498.128 348.171 495.126V496.9C348.171 512.185 341.939 519.827 329.475 519.827C326.109 519.827 322.924 518.872 319.922 516.961C316.92 515.141 314.736 512.776 313.371 509.865L298.496 516.279C301.226 522.283 305.365 527.014 310.915 530.471C316.465 534.02 322.651 535.794 329.475 535.794C341.029 535.794 349.991 532.382 356.359 525.559C362.819 518.735 366.049 508.545 366.049 494.989V439.173ZM421.081 437.536C429.36 437.536 435.638 440.22 439.914 445.588C444.281 450.864 446.419 458.325 446.328 467.969V502.905H428.45V468.924C428.45 464.193 427.268 460.599 424.902 458.143C422.537 455.686 419.671 454.458 416.304 454.458C412.483 454.458 409.117 455.641 406.206 458.006C403.385 460.372 401.975 464.193 401.975 469.47V502.905H384.098V439.173H401.975V449.955C403.249 446.042 405.842 442.995 409.754 440.811C413.666 438.628 417.442 437.536 421.081 437.536ZM502.323 495.126C509.237 501.404 517.471 504.542 527.024 504.542C538.396 504.542 547.358 499.993 553.908 490.895L540.398 481.479C537.304 485.755 532.892 487.893 527.16 487.893C522.156 487.893 518.062 486.255 514.878 482.98C511.785 479.705 510.238 475.656 510.238 470.834C510.238 466.103 511.785 462.146 514.878 458.962C518.062 455.777 522.156 454.185 527.16 454.185C532.892 454.185 537.304 456.323 540.398 460.599L553.908 451.183C547.358 442.085 538.396 437.536 527.024 437.536C517.471 437.536 509.237 440.629 502.323 446.816C495.499 453.002 492.088 461.009 492.088 470.834C492.088 480.66 495.499 488.757 502.323 495.126ZM620.064 495.126C613.331 501.404 605.28 504.542 595.909 504.542C586.538 504.542 578.486 501.404 571.754 495.126C565.021 488.848 561.655 480.842 561.655 471.107C561.655 461.282 565.021 453.23 571.754 446.952C578.486 440.675 586.538 437.536 595.909 437.536C605.28 437.536 613.331 440.675 620.064 446.952C626.796 453.23 630.163 461.282 630.163 471.107C630.163 480.842 626.796 488.848 620.064 495.126ZM739.907 445.588C735.813 440.22 729.809 437.536 721.893 437.536C717.981 437.536 713.978 438.582 709.884 440.675C705.79 442.676 702.697 445.815 700.604 450.091C696.601 441.721 689.778 437.536 680.134 437.536C676.04 437.536 672.173 438.81 668.534 441.357C664.895 443.813 662.757 447.225 662.12 451.592V439.173H644.242V502.905H662.12V469.333C662.12 464.056 663.348 460.235 665.804 457.87C668.352 455.504 671.445 454.322 675.084 454.322C678.36 454.322 681.044 455.55 683.136 458.006C685.229 460.372 686.275 463.965 686.275 468.787V502.905H704.152V471.517C704.152 465.694 705.244 461.372 707.428 458.552C709.702 455.641 712.795 454.231 716.708 454.322C720.074 454.322 722.803 455.504 724.896 457.87C727.079 460.235 728.171 463.783 728.171 468.514V502.905H746.185V467.969C746.185 458.325 744.092 450.864 739.907 445.588ZM801.601 437.536C810.062 437.536 817.386 440.675 823.573 446.952C829.759 453.139 832.852 461.145 832.852 470.971C832.852 480.979 829.759 489.076 823.573 495.262C817.477 501.449 810.153 504.542 801.601 504.542C797.689 504.542 793.822 503.723 790.001 502.086C786.18 500.448 783.223 498.083 781.131 494.989V534.156H763.253V439.173H781.131V446.952C783.223 443.95 786.18 441.63 790.001 439.992C793.822 438.355 797.689 437.536 801.601 437.536ZM912.859 439.173H894.981V447.635C892.889 444.45 889.977 441.994 886.247 440.265C882.517 438.446 878.559 437.536 874.374 437.536C865.185 437.536 857.68 440.675 851.857 446.952C846.125 453.139 843.259 461.191 843.259 471.107C843.259 480.933 846.171 488.985 851.993 495.262C857.816 501.449 865.14 504.542 873.965 504.542C878.241 504.542 882.29 503.587 886.111 501.676C889.932 499.675 892.889 497.036 894.981 493.761V502.905H912.859V439.173ZM967.891 437.536C976.17 437.536 982.448 440.22 986.724 445.588C991.091 450.864 993.229 458.325 993.138 467.969V502.905H975.26V468.924C975.26 464.193 974.078 460.599 971.712 458.143C969.347 455.686 966.481 454.458 963.115 454.458C959.293 454.458 955.927 455.641 953.016 458.006C950.195 460.372 948.785 464.193 948.785 469.47V502.905H930.908V439.173H948.785V449.955C950.059 446.042 952.652 442.995 956.564 440.811C960.476 438.628 964.252 437.536 967.891 437.536ZM1069.32 439.173H1050.08L1035.48 476.02L1020.47 439.173H1000.82L1026.06 496.9L1010.92 534.156H1030.02L1069.32 439.173Z" fill="white"/>
</svg>
