<svg width="1104" height="675" viewBox="0 0 1104 675" fill="none" xmlns="http://www.w3.org/2000/svg">
<path fill-rule="evenodd" clip-rule="evenodd" d="M1104 -3.05176e-05H-0.000488281V675H1104V-3.05176e-05ZM574.221 211.129L566.578 188.612H531.369L523.863 211.129H503.666L538.739 117.102H559.209L594.145 211.129H574.221ZM560.983 172.099L548.974 136.481L536.965 172.099H560.983ZM183.923 304.338V318.258H170.413V368.069H152.535V318.258H140.935V304.338H152.535V281.138H170.413V304.338H183.923ZM256.881 342.003C257.154 339.183 257.29 336.909 257.29 335.18C257.29 325.627 254.106 317.848 247.738 311.844C241.369 305.748 233.499 302.7 224.128 302.7C214.758 302.7 206.751 305.794 200.11 311.98C193.559 318.167 190.284 326.264 190.284 336.272C190.284 346.098 193.468 354.149 199.837 360.427C206.296 366.613 214.439 369.707 224.265 369.707C229.906 369.707 235.273 368.569 240.368 366.295C245.463 364.021 249.512 360.882 252.514 356.879L242.142 346.37C237.775 351.374 232.18 353.876 225.357 353.876C221.172 353.876 217.623 352.83 214.712 350.737C211.892 348.645 209.981 345.734 208.98 342.003H256.881ZM234.773 321.533C237.502 323.717 239.004 326.673 239.276 330.404H208.98C209.89 326.31 211.71 323.262 214.439 321.26C217.259 319.168 220.626 318.121 224.538 318.121C228.632 318.121 232.044 319.259 234.773 321.533ZM302.114 369.707C292.561 369.707 284.328 366.568 277.413 360.29C270.59 353.922 267.178 345.825 267.178 335.999C267.178 326.173 270.59 318.167 277.413 311.98C284.328 305.794 292.561 302.7 302.114 302.7C313.487 302.7 322.448 307.249 328.999 316.347L315.488 325.764C312.395 321.488 307.982 319.35 302.251 319.35C297.247 319.35 293.153 320.942 289.968 324.126C286.875 327.31 285.328 331.268 285.328 335.999C285.328 340.821 286.875 344.869 289.968 348.145C293.153 351.42 297.247 353.057 302.251 353.057C307.982 353.057 312.395 350.919 315.488 346.643L328.999 356.06C322.448 365.158 313.487 369.707 302.114 369.707ZM397.585 310.752C393.309 305.384 387.031 302.7 378.752 302.7C375.113 302.7 371.338 303.747 367.425 305.839C363.513 307.841 360.92 310.707 359.647 314.437V269.675H341.769V368.069H359.647V334.634C359.647 329.448 361.057 325.673 363.877 323.307C366.789 320.851 370.155 319.622 373.976 319.622C377.342 319.622 380.208 320.896 382.573 323.444C384.939 325.9 386.122 329.494 386.122 334.225V368.069H403.999V333.133C404.09 323.489 401.952 316.029 397.585 310.752ZM458.182 302.7C466.461 302.7 472.738 305.384 477.015 310.752C481.382 316.029 483.52 323.489 483.429 333.133V368.069H465.551V334.088C465.551 329.357 464.368 325.764 462.003 323.307C459.637 320.851 456.772 319.622 453.405 319.622C449.584 319.622 446.218 320.805 443.307 323.171C440.486 325.536 439.076 329.357 439.076 334.634V368.069H421.199V304.338H439.076V315.119C440.35 311.207 442.943 308.159 446.855 305.976C450.767 303.792 454.543 302.7 458.182 302.7ZM530.924 369.707C540.295 369.707 548.347 366.568 555.079 360.29C561.812 354.013 565.178 346.007 565.178 336.272C565.178 326.446 561.812 318.394 555.079 312.117C548.347 305.839 540.295 302.7 530.924 302.7C521.553 302.7 513.502 305.839 506.769 312.117C500.037 318.394 496.67 326.446 496.67 336.272C496.67 346.007 500.037 354.013 506.769 360.29C513.502 366.568 521.553 369.707 530.924 369.707ZM530.924 353.057C526.466 353.057 522.645 351.465 519.461 348.281C516.367 345.097 514.821 341.094 514.821 336.272C514.821 331.359 516.367 327.31 519.461 324.126C522.554 320.942 526.375 319.35 530.924 319.35C535.473 319.35 539.294 320.942 542.388 324.126C545.481 327.31 547.027 331.359 547.027 336.272C547.027 341.094 545.435 345.097 542.251 348.281C539.158 351.465 535.382 353.057 530.924 353.057ZM579.258 368.069V269.675H597.135V368.069H579.258ZM645.404 369.707C654.775 369.707 662.826 366.568 669.559 360.29C676.291 354.013 679.658 346.007 679.658 336.272C679.658 326.446 676.291 318.394 669.559 312.117C662.826 305.839 654.775 302.7 645.404 302.7C636.033 302.7 627.981 305.839 621.249 312.117C614.516 318.394 611.15 326.446 611.15 336.272C611.15 346.007 614.516 354.013 621.249 360.29C627.981 366.568 636.033 369.707 645.404 369.707ZM645.404 353.057C640.946 353.057 637.125 351.465 633.94 348.281C630.847 345.097 629.3 341.094 629.3 336.272C629.3 331.359 630.847 327.31 633.94 324.126C637.034 320.942 640.855 319.35 645.404 319.35C649.953 319.35 653.774 320.942 656.867 324.126C659.96 327.31 661.507 331.359 661.507 336.272C661.507 341.094 659.915 345.097 656.731 348.281C653.637 351.465 649.862 353.057 645.404 353.057ZM741.638 304.338H759.516V360.154C759.516 373.71 756.286 383.9 749.826 390.723C743.458 397.546 734.496 400.958 722.942 400.958C716.118 400.958 709.932 399.184 704.382 395.636C698.832 392.179 694.693 387.448 691.963 381.443L706.838 375.029C708.203 377.94 710.387 380.306 713.389 382.125C716.391 384.036 719.576 384.991 722.942 384.991C735.406 384.991 741.638 377.349 741.638 362.064V360.29C739.455 363.293 736.452 365.613 732.631 367.25C728.81 368.888 724.989 369.707 721.168 369.707C712.616 369.707 705.246 366.613 699.06 360.427C692.964 354.149 689.916 346.052 689.916 336.135C689.916 326.219 692.964 318.167 699.06 311.98C705.246 305.794 712.616 302.7 721.168 302.7C724.989 302.7 728.81 303.519 732.631 305.157C736.452 306.703 739.455 308.978 741.638 311.98V304.338ZM724.579 353.057C729.037 353.057 732.904 351.42 736.179 348.145C739.455 344.869 741.092 340.866 741.092 336.135C741.092 331.404 739.409 327.447 736.043 324.262C732.677 320.987 728.855 319.35 724.579 319.35C720.03 319.35 716.118 320.987 712.843 324.262C709.659 327.538 708.067 331.495 708.067 336.135C708.067 340.775 709.659 344.778 712.843 348.145C716.118 351.42 720.03 353.057 724.579 353.057ZM837.884 304.338H818.642L804.04 341.185L789.028 304.338H769.376L794.623 362.064L779.475 399.321H798.581L837.884 304.338ZM952.553 352.785H955.829V368.615H952.008C941.454 368.433 934.267 364.839 930.445 357.834C928.08 361.564 924.623 364.475 920.074 366.568C915.616 368.66 910.566 369.707 904.926 369.707C895.919 369.707 888.731 367.205 883.364 362.201C877.996 357.106 875.312 350.556 875.312 342.549C875.312 336.636 876.904 331.495 880.088 327.128C883.364 322.761 887.321 319.713 891.961 317.985C888.413 316.62 885.547 314.118 883.364 310.479C881.271 306.84 880.225 302.7 880.225 298.06C880.225 290.873 882.954 284.823 888.413 279.91C893.872 274.906 900.832 272.404 909.293 272.404C913.933 272.404 918.391 273.405 922.667 275.406C926.943 277.317 930.4 279.955 933.038 283.322L920.893 294.785C917.981 290.964 914.206 289.053 909.566 289.053C906.381 289.053 903.743 290.009 901.65 291.919C899.558 293.83 898.512 296.332 898.512 299.425C898.512 302.882 899.74 305.748 902.196 308.023C904.653 310.206 908.064 311.298 912.432 311.298H925.26V301.472H942.045V311.844H953.372V325.491H942.045V338.319C942.045 342.868 943.001 346.416 944.911 348.963C946.913 351.511 949.46 352.785 952.553 352.785ZM907.382 353.057C912.75 353.057 917.071 351.465 920.347 348.281C923.622 345.097 925.26 340.866 925.26 335.589V325.491H912.841C907.018 325.491 902.333 326.855 898.785 329.585C895.236 332.314 893.462 335.908 893.462 340.366C893.462 344.278 894.736 347.371 897.283 349.646C899.831 351.92 903.197 353.057 907.382 353.057ZM105.156 426.614H87.2785V469.056C85.186 465.963 82.2291 463.643 78.408 462.096C74.6778 460.459 70.8112 459.64 66.8081 459.64C58.256 459.64 50.8867 462.733 44.7001 468.92C38.6045 475.106 35.5566 483.158 35.5566 493.075C35.5566 502.992 38.6045 511.089 44.7001 517.366C50.8867 523.553 58.256 526.646 66.8081 526.646C70.6292 526.646 74.4504 525.828 78.2715 524.19C82.1836 522.552 85.186 520.187 87.2785 517.094V525.009H105.156V426.614ZM81.8197 505.084C78.5445 508.359 74.6778 509.997 70.2198 509.997C65.6709 509.997 61.7587 508.359 58.4835 505.084C55.2992 501.718 53.7071 497.715 53.7071 493.075C53.7071 488.435 55.2992 484.477 58.4835 481.202C61.7587 477.927 65.6709 476.289 70.2198 476.289C74.4959 476.289 78.317 477.927 81.6833 481.202C85.0495 484.386 86.7326 488.344 86.7326 493.075C86.7326 497.806 85.095 501.809 81.8197 505.084ZM186.39 492.12C186.39 493.848 186.254 496.123 185.981 498.943H138.08C139.081 502.673 140.992 505.585 143.812 507.677C146.723 509.77 150.272 510.816 154.457 510.816C161.28 510.816 166.875 508.314 171.242 503.31L181.614 513.818C178.612 517.821 174.563 520.96 169.468 523.235C164.373 525.509 159.006 526.646 153.365 526.646C143.539 526.646 135.396 523.553 128.937 517.366C122.568 511.089 119.384 503.037 119.384 493.211C119.384 483.204 122.659 475.106 129.21 468.92C135.851 462.733 143.857 459.64 153.228 459.64C162.599 459.64 170.469 462.688 176.838 468.783C183.206 474.788 186.39 482.567 186.39 492.12ZM168.376 487.343C168.104 483.613 166.602 480.656 163.873 478.473C161.144 476.198 157.732 475.061 153.638 475.061C149.726 475.061 146.359 476.107 143.539 478.2C140.81 480.201 138.99 483.249 138.08 487.343H168.376ZM222.753 526.646C229.849 526.646 236.082 524.827 241.449 521.188C246.817 517.548 249.501 512.59 249.501 506.312C249.501 496.851 243.769 490.573 232.306 487.48L221.798 484.75C217.613 483.659 215.52 481.839 215.52 479.292C215.52 477.654 216.203 476.335 217.567 475.334C219.023 474.242 220.797 473.696 222.89 473.696C225.073 473.696 226.893 474.288 228.348 475.47C229.895 476.653 230.668 478.291 230.668 480.383H247.727C247.727 476.744 246.954 473.56 245.407 470.83C243.951 468.01 241.95 465.827 239.402 464.28C236.946 462.733 234.307 461.596 231.487 460.868C228.667 460.049 225.71 459.64 222.617 459.64C215.429 459.64 209.47 461.551 204.739 465.372C200.008 469.193 197.643 473.651 197.643 478.746C197.643 488.935 203.829 495.668 216.203 498.943L224.664 500.99C229.304 502.173 231.624 503.947 231.624 506.312C231.624 508.132 230.759 509.633 229.031 510.816C227.302 511.999 225.119 512.59 222.48 512.59C219.569 512.59 217.249 511.817 215.52 510.27C213.883 508.723 213.064 506.949 213.064 504.948H196.278C196.369 511.68 199.007 517.003 204.193 520.915C209.47 524.736 215.657 526.646 222.753 526.646ZM272.41 450.087C269.316 450.087 266.633 449.041 264.358 446.948C262.175 444.856 261.083 442.308 261.083 439.306C261.083 436.304 262.175 433.802 264.358 431.8C266.633 429.708 269.316 428.661 272.41 428.661C275.594 428.661 278.278 429.708 280.461 431.8C282.645 433.802 283.737 436.304 283.737 439.306C283.737 442.308 282.645 444.856 280.461 446.948C278.278 449.041 275.594 450.087 272.41 450.087ZM263.539 525.009V461.278H281.417V525.009H263.539ZM365.167 461.278H347.29V468.92C345.106 465.918 342.104 463.643 338.283 462.096C334.462 460.459 330.641 459.64 326.819 459.64C318.267 459.64 310.898 462.733 304.711 468.92C298.616 475.106 295.568 483.158 295.568 493.075C295.568 502.992 298.616 511.089 304.711 517.366C310.898 523.553 318.267 526.646 326.819 526.646C330.641 526.646 334.462 525.828 338.283 524.19C342.104 522.552 345.106 520.232 347.29 517.23V519.004C347.29 534.289 341.058 541.931 328.594 541.931C325.227 541.931 322.043 540.976 319.041 539.065C316.038 537.246 313.855 534.88 312.49 531.969L297.615 538.383C300.344 544.387 304.484 549.118 310.034 552.576C315.583 556.124 321.77 557.898 328.594 557.898C340.148 557.898 349.109 554.486 355.478 547.663C361.938 540.839 365.167 530.65 365.167 517.094V461.278ZM341.831 505.084C338.556 508.359 334.689 509.997 330.231 509.997C325.682 509.997 321.77 508.359 318.495 505.084C315.31 501.718 313.718 497.715 313.718 493.075C313.718 488.435 315.31 484.477 318.495 481.202C321.77 477.927 325.682 476.289 330.231 476.289C334.507 476.289 338.328 477.927 341.695 481.202C345.061 484.386 346.744 488.344 346.744 493.075C346.744 497.806 345.106 501.809 341.831 505.084ZM420.2 459.64C428.479 459.64 434.756 462.324 439.032 467.692C443.399 472.968 445.537 480.429 445.446 490.073V525.009H427.569V491.028C427.569 486.297 426.386 482.703 424.021 480.247C421.655 477.79 418.789 476.562 415.423 476.562C411.602 476.562 408.236 477.745 405.324 480.11C402.504 482.476 401.094 486.297 401.094 491.574V525.009H383.216V461.278H401.094V472.059C402.368 468.147 404.961 465.099 408.873 462.915C412.785 460.732 416.56 459.64 420.2 459.64ZM501.441 517.23C508.356 523.508 516.59 526.646 526.142 526.646C537.515 526.646 546.476 522.097 553.027 512.999L539.516 503.583C536.423 507.859 532.011 509.997 526.279 509.997C521.275 509.997 517.181 508.359 513.997 505.084C510.903 501.809 509.357 497.76 509.357 492.938C509.357 488.208 510.903 484.25 513.997 481.066C517.181 477.881 521.275 476.289 526.279 476.289C532.011 476.289 536.423 478.427 539.516 482.703L553.027 473.287C546.476 464.189 537.515 459.64 526.142 459.64C516.59 459.64 508.356 462.733 501.441 468.92C494.618 475.106 491.206 483.113 491.206 492.938C491.206 502.764 494.618 510.861 501.441 517.23ZM619.182 517.23C612.45 523.508 604.398 526.646 595.027 526.646C585.656 526.646 577.605 523.508 570.872 517.23C564.14 510.952 560.774 502.946 560.774 493.211C560.774 483.386 564.14 475.334 570.872 469.056C577.605 462.779 585.656 459.64 595.027 459.64C604.398 459.64 612.45 462.779 619.182 469.056C625.915 475.334 629.281 483.386 629.281 493.211C629.281 502.946 625.915 510.952 619.182 517.23ZM583.564 505.221C586.748 508.405 590.569 509.997 595.027 509.997C599.485 509.997 603.261 508.405 606.354 505.221C609.539 502.036 611.131 498.033 611.131 493.211C611.131 488.299 609.584 484.25 606.491 481.066C603.398 477.881 599.576 476.289 595.027 476.289C590.478 476.289 586.657 477.881 583.564 481.066C580.471 484.25 578.924 488.299 578.924 493.211C578.924 498.033 580.471 502.036 583.564 505.221ZM739.026 467.692C734.932 462.324 728.927 459.64 721.012 459.64C717.1 459.64 713.097 460.686 709.003 462.779C704.909 464.78 701.815 467.919 699.723 472.195C695.72 463.825 688.896 459.64 679.252 459.64C675.158 459.64 671.292 460.914 667.653 463.461C664.013 465.918 661.875 469.329 661.238 473.696V461.278H643.361V525.009H661.238V491.437C661.238 486.16 662.467 482.339 664.923 479.974C667.471 477.608 670.564 476.426 674.203 476.426C677.478 476.426 680.162 477.654 682.255 480.11C684.347 482.476 685.393 486.07 685.393 490.891V525.009H703.271V493.621C703.271 487.798 704.363 483.477 706.546 480.656C708.821 477.745 711.914 476.335 715.826 476.426C719.192 476.426 721.922 477.608 724.014 479.974C726.198 482.339 727.29 485.888 727.29 490.619V525.009H745.304V490.073C745.304 480.429 743.211 472.968 739.026 467.692ZM800.72 459.64C809.181 459.64 816.505 462.779 822.691 469.056C828.878 475.243 831.971 483.249 831.971 493.075C831.971 503.083 828.878 511.18 822.691 517.366C816.596 523.553 809.272 526.646 800.72 526.646C796.808 526.646 792.941 525.828 789.12 524.19C785.299 522.552 782.342 520.187 780.249 517.094V556.26H762.372V461.278H780.249V469.056C782.342 466.054 785.299 463.734 789.12 462.096C792.941 460.459 796.808 459.64 800.72 459.64ZM797.308 509.997C801.857 509.997 805.724 508.405 808.908 505.221C812.092 501.945 813.684 497.942 813.684 493.211C813.684 488.48 812.092 484.477 808.908 481.202C805.724 477.927 801.857 476.289 797.308 476.289C792.85 476.289 788.983 477.927 785.708 481.202C782.433 484.477 780.795 488.48 780.795 493.211C780.795 497.942 782.478 501.945 785.844 505.221C789.211 508.405 793.032 509.997 797.308 509.997ZM911.977 461.278H894.1V469.739C892.007 466.554 889.096 464.098 885.366 462.369C881.636 460.55 877.678 459.64 873.493 459.64C864.304 459.64 856.798 462.779 850.976 469.056C845.244 475.243 842.378 483.295 842.378 493.211C842.378 503.037 845.289 511.089 851.112 517.366C856.935 523.553 864.259 526.646 873.084 526.646C877.36 526.646 881.408 525.691 885.229 523.781C889.05 521.779 892.007 519.141 894.1 515.865V525.009H911.977V461.278ZM888.641 505.084C885.366 508.359 881.499 509.997 877.041 509.997C872.401 509.997 868.489 508.359 865.305 505.084C862.211 501.718 860.665 497.76 860.665 493.211C860.665 488.571 862.211 484.614 865.305 481.339C868.398 477.972 872.265 476.289 876.905 476.289C881.454 476.289 885.366 477.927 888.641 481.202C891.916 484.477 893.554 488.48 893.554 493.211C893.554 497.76 891.916 501.718 888.641 505.084ZM967.01 459.64C975.289 459.64 981.566 462.324 985.842 467.692C990.209 472.968 992.347 480.429 992.256 490.073V525.009H974.379V491.028C974.379 486.297 973.196 482.703 970.831 480.247C968.465 477.79 965.599 476.562 962.233 476.562C958.412 476.562 955.046 477.745 952.134 480.11C949.314 482.476 947.904 486.297 947.904 491.574V525.009H930.026V461.278H947.904V472.059C949.178 468.147 951.771 465.099 955.683 462.915C959.595 460.732 963.37 459.64 967.01 459.64ZM1068.44 461.278H1049.2L1034.6 498.124L1019.59 461.278H999.935L1025.18 519.004L1010.03 556.26H1029.14L1068.44 461.278Z" fill="white"/>
</svg>
