<svg width="1103" height="647" viewBox="0 0 1103 647" fill="none" xmlns="http://www.w3.org/2000/svg">
<path d="M88.2942 248.665H113.56L100.927 211.197L88.2942 248.665Z" fill="white"/>
<path d="M280.916 240.769C283.788 243.066 285.367 246.177 285.654 250.1H253.785C254.742 245.794 256.656 242.588 259.527 240.482C262.493 238.281 266.035 237.18 270.15 237.18C274.456 237.18 278.045 238.377 280.916 240.769Z" fill="white"/>
<path d="M580.387 268.906C583.736 272.256 587.756 273.931 592.446 273.931C597.135 273.931 601.107 272.256 604.361 268.906C607.71 265.557 609.385 261.346 609.385 256.273C609.385 251.105 607.758 246.846 604.504 243.497C601.25 240.147 597.231 238.472 592.446 238.472C587.66 238.472 583.641 240.147 580.387 243.497C577.133 246.846 575.506 251.105 575.506 256.273C575.506 261.346 577.133 265.557 580.387 268.906Z" fill="white"/>
<path d="M712.87 273.931C708.18 273.931 704.16 272.256 700.811 268.906C697.557 265.557 695.93 261.346 695.93 256.273C695.93 251.105 697.557 246.846 700.811 243.497C704.065 240.147 708.084 238.472 712.87 238.472C717.655 238.472 721.674 240.147 724.928 243.497C728.182 246.846 729.809 251.105 729.809 256.273C729.809 261.346 728.134 265.557 724.785 268.906C721.531 272.256 717.559 273.931 712.87 273.931Z" fill="white"/>
<path d="M808.359 268.763C804.913 272.208 800.846 273.931 796.156 273.931C791.371 273.931 787.256 272.208 783.811 268.763C780.461 265.222 778.786 261.011 778.786 256.13C778.786 251.249 780.461 247.086 783.811 243.64C787.256 240.195 791.371 238.472 796.156 238.472C800.655 238.472 804.674 240.195 808.215 243.64C811.756 246.99 813.527 251.153 813.527 256.13C813.527 261.106 811.804 265.317 808.359 268.763Z" fill="white"/>
<path d="M988.451 273.931C994.098 273.931 998.644 272.256 1002.09 268.906C1005.53 265.557 1007.26 261.106 1007.26 255.555V244.932H994.194C988.069 244.932 983.14 246.368 979.407 249.239C975.675 252.11 973.809 255.891 973.809 260.58C973.809 264.695 975.149 267.949 977.828 270.342C980.508 272.734 984.049 273.931 988.451 273.931Z" fill="white"/>
<path d="M44.873 409.83C49.5625 409.83 53.63 408.107 57.0753 404.662C60.5206 401.217 62.2433 397.006 62.2433 392.029C62.2433 387.052 60.4728 382.889 56.9317 379.54C53.3907 376.094 49.3712 374.372 44.873 374.372C40.0879 374.372 35.9727 376.094 32.5272 379.54C29.1776 382.985 27.5028 387.148 27.5028 392.029C27.5028 396.91 29.1776 401.121 32.5272 404.662C35.9727 408.107 40.0879 409.83 44.873 409.83Z" fill="white"/>
<path d="M148.127 386C147.839 382.076 146.26 378.965 143.389 376.669C140.518 374.276 136.929 373.08 132.622 373.08C128.507 373.08 124.966 374.18 121.999 376.381C119.128 378.487 117.214 381.693 116.257 386H148.127Z" fill="white"/>
<path d="M318.386 409.83C323.075 409.83 327.143 408.107 330.588 404.662C334.033 401.217 335.756 397.006 335.756 392.029C335.756 387.052 333.985 382.889 330.444 379.54C326.903 376.094 322.884 374.372 318.386 374.372C313.601 374.372 309.485 376.094 306.04 379.54C302.69 382.985 301.015 387.148 301.015 392.029C301.015 396.91 302.69 401.121 306.04 404.662C309.485 408.107 313.601 409.83 318.386 409.83Z" fill="white"/>
<path d="M584.873 404.805C588.223 408.155 592.242 409.83 596.932 409.83C601.621 409.83 605.593 408.155 608.847 404.805C612.196 401.456 613.871 397.245 613.871 392.173C613.871 387.005 612.244 382.746 608.99 379.396C605.736 376.046 601.717 374.372 596.932 374.372C592.146 374.372 588.127 376.046 584.873 379.396C581.619 382.746 579.992 387.005 579.992 392.173C579.992 397.245 581.619 401.456 584.873 404.805Z" fill="white"/>
<path d="M821.918 404.805C818.568 408.155 814.501 409.83 809.716 409.83C805.218 409.83 801.198 408.155 797.657 404.805C794.116 401.36 792.346 397.149 792.346 392.173C792.346 387.196 794.068 382.985 797.513 379.54C800.959 376.094 805.026 374.372 809.716 374.372C814.501 374.372 818.568 376.094 821.918 379.54C825.268 382.985 826.942 387.196 826.942 392.173C826.942 397.149 825.268 401.36 821.918 404.805Z" fill="white"/>
<path d="M905.791 404.662C902.346 408.107 898.279 409.83 893.589 409.83C888.708 409.83 884.593 408.107 881.243 404.662C877.99 401.121 876.362 396.958 876.362 392.173C876.362 387.292 877.99 383.129 881.243 379.683C884.497 376.142 888.565 374.372 893.446 374.372C898.231 374.372 902.346 376.094 905.791 379.54C909.237 382.985 910.959 387.196 910.959 392.173C910.959 396.958 909.237 401.121 905.791 404.662Z" fill="white"/>
<path fill-rule="evenodd" clip-rule="evenodd" d="M1102.92 0.218018H0.41626V646.218H1102.92V0.218018ZM432.372 220.959C441.081 220.959 447.685 223.782 452.183 229.428C456.777 234.979 459.026 242.827 458.93 252.972V289.722H440.124V254.12C440.124 249.143 438.88 245.363 436.392 242.779C433.903 240.099 430.889 238.76 427.348 238.76C423.328 238.76 419.787 240.052 416.725 242.635C413.758 245.124 412.274 249.095 412.274 254.551V289.722H393.469V186.218H412.274V233.304C413.614 229.381 416.342 226.366 420.457 224.26C424.572 222.059 428.544 220.959 432.372 220.959ZM119.446 266.035L127.485 289.722H148.444L111.694 190.812H90.1603L53.2666 289.722H74.5128L82.4084 266.035H119.446ZM227.426 237.324V222.681H213.214V198.277H194.409V222.681H182.206V237.324H194.409V289.722H213.214V237.324H227.426ZM304.603 255.125C304.603 256.943 304.46 259.336 304.172 262.303H253.785C254.837 266.226 256.847 269.289 259.814 271.49C262.876 273.691 266.609 274.792 271.011 274.792C278.189 274.792 284.075 272.16 288.669 266.896L299.579 277.95C296.421 282.161 292.162 285.463 286.802 287.855C281.443 290.248 275.796 291.444 269.863 291.444C259.527 291.444 250.961 288.191 244.166 281.683C237.467 275.079 234.117 266.609 234.117 256.273C234.117 245.746 237.563 237.228 244.453 230.72C251.44 224.213 259.862 220.959 269.719 220.959C279.577 220.959 287.855 224.165 294.554 230.577C301.253 236.893 304.603 245.076 304.603 255.125ZM325.771 281.539C333.044 288.143 341.706 291.444 351.754 291.444C363.717 291.444 373.144 286.659 380.035 277.089L365.823 267.184C362.569 271.682 357.927 273.931 351.898 273.931C346.634 273.931 342.328 272.208 338.978 268.763C335.724 265.317 334.097 261.058 334.097 255.986C334.097 251.01 335.724 246.846 338.978 243.497C342.328 240.147 346.634 238.472 351.898 238.472C357.927 238.472 362.569 240.721 365.823 245.22L380.035 235.314C373.144 225.744 363.717 220.959 351.754 220.959C341.706 220.959 333.044 224.213 325.771 230.72C318.593 237.228 315.004 245.65 315.004 255.986C315.004 266.322 318.593 274.84 325.771 281.539ZM535.737 229.428C531.239 223.782 524.635 220.959 515.926 220.959C512.098 220.959 508.126 222.107 504.011 224.404C499.896 226.701 497.168 229.907 495.828 234.022V222.681H477.022V289.722H495.828V254.551C495.828 249 497.312 244.98 500.278 242.492C503.341 240.004 506.882 238.76 510.901 238.76C514.443 238.76 517.457 240.052 519.946 242.635C522.434 245.22 523.678 249 523.678 253.976V289.722H542.484V252.972C542.579 242.827 540.331 234.979 535.737 229.428ZM617.855 281.539C610.773 288.143 602.303 291.444 592.446 291.444C582.588 291.444 574.118 288.143 567.036 281.539C559.954 274.935 556.413 266.514 556.413 256.273C556.413 245.937 559.954 237.468 567.036 230.864C574.118 224.26 582.588 220.959 592.446 220.959C602.303 220.959 610.773 224.26 617.855 230.864C624.937 237.468 628.478 245.937 628.478 256.273C628.478 266.514 624.937 274.935 617.855 281.539ZM643.289 186.218V289.722H662.095V186.218H643.289ZM738.279 281.539C731.197 288.143 722.727 291.444 712.87 291.444C703.012 291.444 694.542 288.143 687.46 281.539C680.378 274.935 676.837 266.514 676.837 256.273C676.837 245.937 680.378 237.468 687.46 230.864C694.542 224.26 703.012 220.959 712.87 220.959C722.727 220.959 731.197 224.26 738.279 230.864C745.361 237.468 748.902 245.937 748.902 256.273C748.902 266.514 745.361 274.935 738.279 281.539ZM832.907 222.681H814.101V230.72C811.804 227.562 808.646 225.17 804.626 223.543C800.607 221.82 796.587 220.959 792.567 220.959C783.571 220.959 775.82 224.213 769.312 230.72C762.9 237.228 759.693 245.698 759.693 256.13C759.693 266.561 762.9 275.079 769.312 281.683C775.82 288.191 783.571 291.444 792.567 291.444C796.587 291.444 800.607 290.583 804.626 288.86C808.646 287.138 811.804 284.697 814.101 281.539V283.405C814.101 299.484 807.545 307.523 794.434 307.523C790.893 307.523 787.543 306.518 784.385 304.508C781.227 302.594 778.93 300.106 777.494 297.043L761.847 303.79C764.718 310.107 769.072 315.083 774.91 318.72C780.748 322.452 787.256 324.319 794.434 324.319C806.588 324.319 816.015 320.73 822.714 313.552C829.509 306.374 832.907 295.655 832.907 281.395V222.681ZM895.103 222.681H915.345L874.001 322.596H853.903L869.837 283.405L843.28 222.681H863.952L879.743 261.441L895.103 222.681ZM1039.41 273.644H1035.97C1032.71 273.644 1030.03 272.304 1027.93 269.624C1025.92 266.944 1024.91 263.212 1024.91 258.427V244.932H1036.83V230.577H1024.91V219.667H1007.26V230.003H993.763C989.169 230.003 985.58 228.854 982.996 226.557C980.412 224.165 979.12 221.15 979.12 217.513C979.12 214.259 980.221 211.628 982.422 209.618C984.623 207.608 987.399 206.603 990.748 206.603C995.629 206.603 999.601 208.613 1002.66 212.632L1015.44 200.574C1012.66 197.033 1009.03 194.257 1004.53 192.248C1000.03 190.142 995.342 189.089 990.461 189.089C981.561 189.089 974.24 191.721 968.497 196.985C962.755 202.153 959.884 208.517 959.884 216.078C959.884 220.959 960.985 225.313 963.186 229.141C965.483 232.969 968.497 235.601 972.23 237.037C967.349 238.855 963.186 242.061 959.74 246.655C956.391 251.249 954.716 256.656 954.716 262.877C954.716 271.299 957.539 278.189 963.186 283.549C968.832 288.813 976.393 291.444 985.867 291.444C991.801 291.444 997.113 290.344 1001.8 288.143C1006.59 285.941 1010.22 282.879 1012.71 278.955C1016.73 286.324 1024.29 290.105 1035.39 290.296H1039.41V273.644ZM62.8175 322.117H81.6233V425.621H62.8175V417.295C60.6164 420.549 57.4581 423.037 53.3428 424.76C49.3233 426.482 45.3038 427.344 41.2842 427.344C32.288 427.344 24.536 424.09 18.0282 417.582C11.616 410.978 8.40995 402.461 8.40995 392.029C8.40995 381.597 11.616 373.128 18.0282 366.62C24.536 360.112 32.288 356.858 41.2842 356.858C45.4951 356.858 49.5625 357.719 53.4864 359.442C57.506 361.069 60.6164 363.509 62.8175 366.763V322.117ZM166.645 398.202C166.932 395.235 167.076 392.843 167.076 391.024C167.076 380.975 163.726 372.793 157.027 366.476C150.328 360.064 142.049 356.858 132.192 356.858C122.334 356.858 113.912 360.112 106.926 366.62C100.035 373.128 96.5901 381.645 96.5901 392.173C96.5901 402.509 99.9397 410.978 106.639 417.582C113.434 424.09 121.999 427.344 132.336 427.344C138.269 427.344 143.916 426.147 149.275 423.755C154.634 421.362 158.893 418.06 162.051 413.849L151.141 402.796C146.547 408.059 140.662 410.691 133.484 410.691C129.081 410.691 125.349 409.591 122.287 407.389C119.32 405.188 117.31 402.126 116.257 398.202H166.645ZM224.994 421.601C219.347 425.43 212.792 427.344 205.327 427.344C197.862 427.344 191.354 425.334 185.803 421.314C180.348 417.199 177.573 411.6 177.477 404.518H195.134C195.134 406.624 195.996 408.49 197.718 410.117C199.537 411.744 201.977 412.557 205.039 412.557C207.815 412.557 210.112 411.935 211.93 410.691C213.749 409.447 214.658 407.868 214.658 405.954C214.658 403.466 212.217 401.599 207.337 400.355L198.436 398.202C185.42 394.757 178.913 387.674 178.913 376.956C178.913 371.596 181.401 366.907 186.377 362.887C191.354 358.868 197.622 356.858 205.183 356.858C208.437 356.858 211.547 357.289 214.514 358.15C217.481 358.915 220.257 360.112 222.84 361.739C225.52 363.366 227.626 365.663 229.157 368.629C230.784 371.501 231.597 374.85 231.597 378.678H213.653C213.653 376.477 212.839 374.754 211.213 373.51C209.681 372.266 207.767 371.644 205.47 371.644C203.269 371.644 201.403 372.218 199.872 373.367C198.436 374.42 197.718 375.807 197.718 377.53C197.718 380.21 199.919 382.124 204.322 383.272L215.376 386.143C227.434 389.397 233.464 396.001 233.464 405.954C233.464 412.557 230.64 417.773 224.994 421.601ZM249.092 343.507C251.485 345.708 254.308 346.809 257.562 346.809C260.911 346.809 263.735 345.708 266.032 343.507C268.328 341.306 269.477 338.626 269.477 335.468C269.477 332.31 268.328 329.678 266.032 327.573C263.735 325.371 260.911 324.271 257.562 324.271C254.308 324.271 251.485 325.371 249.092 327.573C246.795 329.678 245.647 332.31 245.647 335.468C245.647 338.626 246.795 341.306 249.092 343.507ZM248.231 358.581V425.621H267.037V358.581H248.231ZM336.33 358.581H355.136V417.295C355.136 431.555 351.738 442.274 344.944 449.451C338.244 456.629 328.817 460.218 316.663 460.218C309.485 460.218 302.977 458.352 297.139 454.619C291.302 450.983 286.947 446.006 284.076 439.689L299.724 432.942C301.159 436.005 303.456 438.493 306.614 440.407C309.772 442.417 313.122 443.422 316.663 443.422C329.774 443.422 336.33 435.383 336.33 419.305V417.438C334.033 420.597 330.875 423.037 326.855 424.76C322.836 426.482 318.816 427.344 314.797 427.344C305.801 427.344 298.049 424.09 291.541 417.582C285.129 410.978 281.923 402.461 281.923 392.029C281.923 381.597 285.129 373.128 291.541 366.62C298.049 360.112 305.801 356.858 314.797 356.858C318.816 356.858 322.836 357.719 326.855 359.442C330.875 361.069 334.033 363.461 336.33 366.62V358.581ZM432.837 365.328C428.338 359.681 421.735 356.858 413.026 356.858C409.198 356.858 405.226 358.006 401.111 360.303C396.996 362.6 394.268 365.806 392.928 369.921V358.581H374.122V425.621H392.928V390.45C392.928 384.899 394.411 380.88 397.378 378.391C400.441 375.903 403.982 374.659 408.001 374.659C411.542 374.659 414.557 375.951 417.045 378.535C419.534 381.119 420.778 384.899 420.778 389.876V425.621H439.584V388.871C439.679 378.726 437.43 370.878 432.837 365.328ZM524.47 427.344C514.421 427.344 505.76 424.042 498.486 417.438C491.308 410.739 487.72 402.221 487.72 391.885C487.72 381.549 491.308 373.128 498.486 366.62C505.76 360.112 514.421 356.858 524.47 356.858C536.433 356.858 545.86 361.643 552.75 371.214L538.538 381.119C535.284 376.621 530.643 374.372 524.613 374.372C519.35 374.372 515.043 376.046 511.693 379.396C508.439 382.746 506.812 386.909 506.812 391.885C506.812 396.958 508.439 401.217 511.693 404.662C515.043 408.107 519.35 409.83 524.613 409.83C530.643 409.83 535.284 407.581 538.538 403.083L552.75 412.988C545.86 422.558 536.433 427.344 524.47 427.344ZM596.932 427.344C606.789 427.344 615.259 424.042 622.341 417.438C629.423 410.835 632.964 402.413 632.964 392.173C632.964 381.837 629.423 373.367 622.341 366.763C615.259 360.16 606.789 356.858 596.932 356.858C587.074 356.858 578.605 360.16 571.522 366.763C564.44 373.367 560.899 381.837 560.899 392.173C560.899 402.413 564.44 410.835 571.522 417.438C578.605 424.042 587.074 427.344 596.932 427.344ZM729.458 356.858C737.784 356.858 744.101 359.681 748.407 365.328C752.81 370.878 755.011 378.726 755.011 388.871V425.621H736.062V389.445C736.062 384.468 734.913 380.736 732.616 378.248C730.415 375.759 727.544 374.515 724.003 374.515C719.888 374.42 716.634 375.903 714.241 378.965C711.944 381.932 710.796 386.478 710.796 392.603V425.621H691.99V389.732C691.99 384.66 690.89 380.88 688.688 378.391C686.487 375.807 683.664 374.515 680.218 374.515C676.39 374.515 673.136 375.759 670.457 378.248C667.873 380.736 666.581 384.755 666.581 390.306V425.621H647.775V358.581H666.581V371.644C667.251 367.05 669.5 363.461 673.328 360.877C677.156 358.198 681.223 356.858 685.53 356.858C695.675 356.858 702.853 361.26 707.064 370.065C709.265 365.567 712.519 362.265 716.825 360.16C721.132 357.958 725.343 356.858 729.458 356.858ZM836.417 366.763C829.909 360.16 822.205 356.858 813.305 356.858C809.189 356.858 805.122 357.719 801.102 359.442C797.083 361.165 793.972 363.605 791.771 366.763V358.581H772.966V458.495H791.771V417.295C793.972 420.549 797.083 423.037 801.102 424.76C805.122 426.482 809.189 427.344 813.305 427.344C822.301 427.344 830.005 424.09 836.417 417.582C842.925 411.074 846.179 402.556 846.179 392.029C846.179 381.693 842.925 373.271 836.417 366.763ZM911.534 358.581H930.339V425.621H911.534V416.003C909.333 419.448 906.222 422.224 902.202 424.329C898.183 426.339 893.924 427.344 889.426 427.344C880.143 427.344 872.439 424.09 866.314 417.582C860.189 410.978 857.126 402.509 857.126 392.173C857.126 381.741 860.141 373.271 866.17 366.763C872.295 360.16 880.191 356.858 889.857 356.858C894.259 356.858 898.422 357.815 902.346 359.729C906.27 361.547 909.333 364.131 911.534 367.481V358.581ZM1008.04 365.328C1003.54 359.681 996.938 356.858 988.229 356.858C984.401 356.858 980.429 358.006 976.314 360.303C972.199 362.6 969.471 365.806 968.131 369.921V358.581H949.326V425.621H968.131V390.45C968.131 384.899 969.615 380.88 972.582 378.391C975.644 375.903 979.185 374.659 983.205 374.659C986.746 374.659 989.761 375.951 992.249 378.535C994.737 381.119 995.981 384.899 995.981 389.876V425.621H1014.79V388.871C1014.88 378.726 1012.63 370.878 1008.04 365.328ZM1074.69 358.581H1094.93L1053.59 458.495H1033.49L1049.42 419.305L1022.86 358.581H1043.54L1059.33 397.341L1074.69 358.581Z" fill="white"/>
</svg>
