<svg width="1441" height="292" viewBox="0 0 1441 292" fill="none" xmlns="http://www.w3.org/2000/svg">
<path d="M186.33 78.0716H229.992L179.258 221.613H144.821L115.303 128.48L86.708 221.613H52.2708L0 78.0716H43.6615L70.7193 165.672L98.0846 78.0716H131.907L159.272 165.672L186.33 78.0716Z" fill="white"/>
<path d="M392.624 147.537C392.624 151.43 392.317 156.553 391.702 162.905H283.778C286.033 171.307 290.338 177.864 296.692 182.577C303.252 187.29 311.246 189.646 320.675 189.646C336.049 189.646 348.655 184.011 358.495 172.741L381.863 196.408C375.098 205.425 365.977 212.494 354.497 217.617C343.018 222.74 330.924 225.301 318.215 225.301C296.077 225.301 277.731 218.334 263.177 204.4C248.828 190.261 241.654 172.126 241.654 149.996C241.654 127.455 249.033 109.218 263.792 95.2842C278.756 81.3502 296.795 74.3832 317.908 74.3832C339.021 74.3832 356.752 81.2477 371.101 94.9768C385.45 108.501 392.624 126.021 392.624 147.537ZM283.778 136.779H352.038C351.423 128.378 348.04 121.718 341.891 116.8C335.741 111.677 328.055 109.116 318.83 109.116C310.016 109.116 302.432 111.472 296.077 116.185C289.928 120.693 285.828 127.558 283.778 136.779Z" fill="white"/>
<path d="M510.219 74.3832C529.488 74.3832 545.989 81.3502 559.723 95.2842C573.662 109.218 580.631 127.353 580.631 149.688C580.631 172.024 573.662 190.261 559.723 204.4C545.989 218.334 529.488 225.301 510.219 225.301C501.405 225.301 492.693 223.457 484.084 219.768C475.475 216.08 468.813 210.752 464.098 203.785V221.613H423.819V0H464.098V95.2842C468.813 88.5221 475.475 83.3993 484.084 79.9158C492.693 76.2274 501.405 74.3832 510.219 74.3832ZM476.397 176.737C483.776 184.114 492.488 187.802 502.532 187.802C512.577 187.802 521.186 184.114 528.36 176.737C535.74 169.155 539.429 160.139 539.429 149.688C539.429 139.033 535.842 130.119 528.668 122.947C521.493 115.571 512.782 111.882 502.532 111.882C492.898 111.882 484.289 115.571 476.704 122.947C469.12 130.119 465.328 139.033 465.328 149.688C465.328 160.344 469.018 169.36 476.397 176.737Z" fill="white"/>
<path d="M755.049 147.537C755.049 151.43 754.741 156.553 754.127 162.905H646.203C648.457 171.307 652.762 177.864 659.117 182.577C665.676 187.29 673.67 189.646 683.1 189.646C698.473 189.646 711.08 184.011 720.919 172.741L744.287 196.408C737.523 205.425 728.401 212.494 716.922 217.617C705.443 222.74 693.349 225.301 680.64 225.301C658.502 225.301 640.156 218.334 625.602 204.4C611.253 190.261 604.079 172.126 604.079 149.996C604.079 127.455 611.458 109.218 626.217 95.2842C641.181 81.3502 659.219 74.3832 680.332 74.3832C701.446 74.3832 719.177 81.2477 733.526 94.9768C747.875 108.501 755.049 126.021 755.049 147.537ZM646.203 136.779H714.462C713.847 128.378 710.465 121.718 704.316 116.8C698.166 111.677 690.479 109.116 681.255 109.116C672.441 109.116 664.856 111.472 658.502 116.185C652.352 120.693 648.252 127.558 646.203 136.779Z" fill="white"/>
<path d="M875.49 78.0716H918.844L830.291 292H787.245L821.375 208.088L764.492 78.0716H808.768L842.59 161.061L875.49 78.0716Z" fill="white"/>
<path d="M1059.36 204.093C1044.19 218.232 1026.05 225.301 1004.94 225.301C983.824 225.301 965.683 218.232 950.514 204.093C935.346 189.954 927.761 171.921 927.761 149.996C927.761 127.865 935.346 109.731 950.514 95.5916C965.683 81.4526 983.824 74.3832 1004.94 74.3832C1026.05 74.3832 1044.19 81.4526 1059.36 95.5916C1074.53 109.731 1082.11 127.865 1082.11 149.996C1082.11 171.921 1074.53 189.954 1059.36 204.093ZM979.11 177.044C986.284 184.216 994.893 187.802 1004.94 187.802C1014.98 187.802 1023.49 184.216 1030.46 177.044C1037.63 169.872 1041.22 160.856 1041.22 149.996C1041.22 138.931 1037.73 129.812 1030.77 122.64C1023.8 115.468 1015.19 111.882 1004.94 111.882C994.688 111.882 986.079 115.468 979.11 122.64C972.14 129.812 968.655 138.931 968.655 149.996C968.655 160.856 972.14 169.872 979.11 177.044Z" fill="white"/>
<path d="M1197.16 74.3832C1215.82 74.3832 1229.96 80.4281 1239.59 92.5179C1249.43 104.403 1254.25 121.206 1254.05 142.926V221.613H1213.77V145.078C1213.77 134.422 1211.1 126.328 1205.77 120.796C1200.44 115.263 1193.99 112.497 1186.4 112.497C1177.79 112.497 1170.21 115.161 1163.65 120.488C1157.29 125.816 1154.12 134.422 1154.12 146.307V221.613H1113.84V78.0716H1154.12V102.354C1156.99 93.5425 1162.83 86.6779 1171.64 81.76C1180.46 76.8421 1188.96 74.3832 1197.16 74.3832Z" fill="white"/>
<path d="M1400.72 0H1441V221.613H1400.72V203.785C1396.01 210.752 1389.24 216.08 1380.43 219.768C1371.82 223.457 1363.21 225.301 1354.6 225.301C1335.33 225.301 1318.73 218.334 1304.79 204.4C1291.05 190.261 1284.19 172.024 1284.19 149.688C1284.19 127.353 1291.05 109.218 1304.79 95.2842C1318.73 81.3502 1335.33 74.3832 1354.6 74.3832C1363.62 74.3832 1372.33 76.2274 1380.73 79.9158C1389.34 83.3993 1396.01 88.6246 1400.72 95.5916V0ZM1362.29 187.802C1372.33 187.802 1381.04 184.114 1388.42 176.737C1395.8 169.36 1399.49 160.344 1399.49 149.688C1399.49 139.033 1395.7 130.119 1388.11 122.947C1380.53 115.571 1371.92 111.882 1362.29 111.882C1352.04 111.882 1343.22 115.571 1335.84 122.947C1328.67 130.324 1325.08 139.238 1325.08 149.688C1325.08 160.139 1328.67 169.155 1335.84 176.737C1343.22 184.114 1352.04 187.802 1362.29 187.802Z" fill="white"/>
</svg>
